<?xml version="1.0" encoding="utf-8"?>
<svg version="1.0" width="2000.000000pt" height="2000.000000pt" viewBox="0 0 2000.000000 2000.000000" preserveAspectRatio="xMidYMid meet" xmlns="http://www.w3.org/2000/svg">
  <g transform="translate(0.000000,2000.000000) scale(0.100000,-0.100000)" fill="#000000" stroke="none">
    <path d="M10050 19979 c-214 -13 -401 -57 -615 -146 -551 -228 -1078 -754 -1450 -1448 -90 -168 -163 -323 -229 -485 -15 -36 -31 -74 -36 -85 -33 -74 -150 -415 -185 -540 -127 -455 -197 -807 -240 -1215 -9 -80 -17 -151 -20 -157 -3 -10 -340 -13 -1557 -16 l-1553 -2 -68 -28 c-125 -50 -186 -89 -264 -169 -67 -68 -116 -151 -144 -241 -18 -60 -21 -94 -20 -201 0 -72 5 -155 10 -185 6 -31 15 -155 21 -276 6 -121 15 -247 20 -280 5 -33 14 -152 20 -265 5 -113 15 -241 20 -285 6 -44 17 -192 25 -330 9 -137 20 -299 25 -360 12 -137 33 -445 35 -505 1 -25 4 -70 8 -100 7 -58 30 -383 32 -460 1 -25 4 -65 8 -90 4 -25 12 -130 19 -235 6 -104 12 -208 14 -230 1 -22 10 -139 19 -260 9 -121 17 -247 19 -280 2 -33 6 -76 9 -95 4 -19 11 -125 17 -235 14 -249 18 -302 24 -323 2 -9 10 -120 16 -247 6 -126 15 -252 20 -280 5 -27 14 -144 20 -260 5 -115 15 -246 20 -290 6 -44 17 -183 25 -310 8 -126 21 -340 30 -475 8 -135 19 -276 25 -315 5 -38 14 -160 20 -270 6 -110 15 -240 21 -290 5 -49 17 -193 24 -320 21 -342 44 -615 55 -660 5 -22 14 -67 21 -100 50 -268 184 -558 349 -760 250 -304 586 -485 1015 -547 73 -10 945 -13 4515 -13 3570 0 4442 3 4515 13 147 21 330 68 420 107 376 163 616 387 793 740 51 102 112 270 131 360 6 28 16 66 21 85 19 62 40 250 54 490 8 129 20 271 25 315 6 44 15 177 21 295 6 118 13 226 16 239 7 35 12 94 24 321 6 113 13 221 16 240 8 43 10 75 23 315 6 105 14 210 18 235 3 25 7 65 8 90 4 106 26 429 32 470 4 25 8 65 8 90 3 111 27 440 36 483 5 27 7 53 4 57 -3 5 -1 58 5 117 10 112 30 374 34 453 5 86 27 406 37 530 15 183 47 639 63 915 8 132 20 276 25 320 6 44 16 177 21 295 6 118 15 240 20 270 5 30 14 152 20 270 6 118 15 251 21 295 9 78 25 304 54 785 8 129 19 269 24 310 20 145 34 513 23 580 -23 128 -117 272 -238 361 -55 41 -105 66 -199 101 l-60 22 -1550 6 -1550 5 -7 65 c-17 169 -38 340 -48 385 -6 28 -17 93 -26 145 -33 210 -94 490 -153 695 -11 39 -27 97 -36 130 -33 117 -149 446 -199 560 -7 17 -26 62 -42 100 -78 190 -261 534 -388 728 -60 92 -225 314 -278 374 -18 20 -57 64 -87 97 -413 464 -981 773 -1472 801 -57 3 -124 7 -149 9 -25 2 -101 0 -170 -5z m280 -729 c92 -12 97 -13 243 -60 471 -152 917 -617 1254 -1310 47 -96 89 -182 93 -190 11 -23 96 -238 115 -290 112 -322 177 -560 235 -860 10 -52 20 -102 24 -110 5 -15 24 -138 51 -345 7 -55 14 -121 14 -147 l1 -48 -2175 0 -2175 0 0 38 c1 33 8 91 24 200 3 18 10 69 16 115 16 115 77 422 104 522 1 6 8 37 15 70 13 60 43 169 76 275 27 88 104 316 114 342 6 13 22 55 37 93 25 67 33 85 84 200 248 562 623 1043 1005 1290 136 88 251 138 450 195 95 27 265 36 395 20z m175 -5110 c218 -23 443 -63 615 -109 137 -36 195 -55 385 -122 115 -40 289 -116 435 -190 109 -55 149 -93 188 -177 20 -45 24 -65 20 -130 -5 -117 -61 -207 -168 -270 -40 -24 -55 -27 -135 -27 -87 0 -93 1 -190 49 -373 183 -654 274 -1040 337 -192 32 -532 32 -695 0 -107 -21 -248 -59 -295 -80 -169 -76 -243 -123 -333 -211 -72 -70 -115 -134 -181 -270 -63 -131 -93 -218 -120 -343 -134 -623 361 -1069 1569 -1411 52 -15 102 -31 110 -35 8 -4 39 -14 68 -20 28 -7 55 -17 58 -22 3 -5 12 -9 20 -9 44 0 402 -158 564 -249 667 -375 1050 -902 1102 -1519 28 -330 -31 -637 -182 -947 -32 -66 -72 -140 -88 -165 -16 -25 -45 -70 -64 -100 -76 -120 -225 -287 -348 -390 -214 -178 -532 -328 -800 -380 -30 -5 -77 -15 -105 -20 -142 -29 -614 -29 -785 0 -162 27 -342 66 -485 105 -127 35 -412 137 -533 191 -20 9 -57 26 -82 36 -304 133 -915 483 -1023 586 -21 21 -51 60 -65 87 -23 43 -27 62 -27 135 0 73 4 92 27 136 36 69 117 140 181 159 114 34 194 15 334 -77 959 -633 1850 -886 2502 -711 52 14 102 28 110 32 9 4 64 31 123 60 241 120 421 304 551 566 200 401 181 808 -52 1146 -242 350 -674 616 -1291 795 -260 75 -511 159 -597 199 -17 8 -34 15 -38 15 -3 0 -30 11 -58 23 -29 13 -72 32 -97 43 -86 37 -286 141 -380 198 -452 275 -749 639 -836 1024 -30 129 -33 158 -33 307 -1 297 66 546 236 884 137 271 316 460 578 611 243 141 505 221 850 260 92 11 399 11 500 0z" style="fill: rgb(234, 80, 31);"/>
    <path d="M6515 4290 c-160 -33 -271 -79 -372 -153 -143 -106 -246 -286 -293 -511 -25 -122 -25 -154 0 -261 43 -186 145 -322 337 -451 85 -57 232 -136 291 -155 19 -6 46 -17 60 -25 15 -8 34 -14 42 -14 8 0 27 -6 42 -14 15 -8 42 -17 60 -21 69 -15 303 -98 371 -133 294 -147 446 -350 435 -578 -14 -257 -171 -466 -418 -555 -58 -21 -82 -23 -230 -23 -91 0 -183 5 -205 11 -22 7 -69 19 -105 28 -175 43 -420 158 -635 296 -87 56 -116 64 -171 49 -83 -23 -120 -122 -75 -196 26 -43 231 -177 391 -256 303 -149 526 -208 795 -209 253 -2 411 47 584 179 197 150 341 441 341 688 0 87 -28 221 -61 290 -10 22 -19 43 -19 47 0 24 -107 166 -179 237 -96 96 -182 156 -322 227 -129 65 -180 84 -394 148 -49 14 -103 32 -120 40 -16 7 -41 16 -55 20 -54 16 -197 89 -264 135 -199 135 -264 280 -216 482 23 92 77 204 127 259 45 49 126 98 218 129 58 20 95 24 220 28 83 2 175 -1 205 -6 173 -32 281 -66 438 -136 109 -49 146 -55 192 -31 48 25 70 62 70 117 0 72 -25 101 -125 148 -149 70 -262 109 -450 155 -78 20 -438 30 -510 15z" style="fill: rgb(234, 80, 31);"/>
    <path d="M8273 4280 c-17 -10 -37 -28 -42 -39 -8 -14 -11 -483 -11 -1535 l0 -1516 28 -31 c23 -26 38 -32 82 -37 67 -6 114 17 141 70 18 35 19 65 19 597 l0 561 51 57 c320 359 719 483 985 307 54 -36 134 -124 134 -147 0 -7 6 -24 14 -39 33 -62 36 -129 36 -714 0 -566 1 -586 20 -624 23 -46 53 -68 95 -71 66 -5 87 1 121 35 l35 35 -3 653 -3 653 -26 75 c-14 41 -36 95 -49 120 -33 66 -114 164 -178 216 -61 50 -191 115 -267 134 -77 19 -307 21 -385 3 -193 -45 -360 -126 -525 -256 l-50 -40 -5 729 c-5 692 -6 731 -24 760 -10 17 -31 39 -46 48 -38 22 -108 20 -147 -4z" style="fill: rgb(234, 80, 31);"/>
    <path d="M11295 3060 c-33 -4 -63 -6 -67 -4 -4 2 -9 0 -13 -6 -3 -5 -18 -10 -31 -10 -32 0 -162 -44 -229 -77 -227 -114 -404 -313 -491 -554 -27 -76 -54 -235 -54 -324 0 -133 41 -303 102 -431 127 -264 411 -478 693 -524 91 -15 282 -15 365 0 279 50 537 240 675 495 57 105 91 216 109 355 17 124 17 126 -7 260 -14 74 -32 155 -42 180 -117 311 -377 543 -690 616 -108 26 -237 35 -320 24z m279 -290 c131 -37 213 -86 311 -185 68 -68 98 -107 123 -160 19 -38 37 -77 41 -85 5 -8 13 -40 20 -70 6 -30 17 -78 23 -107 18 -85 -8 -245 -57 -358 -129 -291 -418 -453 -742 -415 -477 57 -753 573 -540 1011 100 206 280 337 532 390 60 12 211 1 289 -21z" style="fill: rgb(234, 80, 31);"/>
    <path d="M12860 3048 c-33 -17 -51 -35 -67 -68 l-23 -44 0 -1402 c0 -1349 1 -1404 19 -1446 26 -60 67 -88 131 -88 27 0 50 4 50 9 0 5 9 13 21 16 11 4 29 26 40 48 18 40 19 77 19 695 0 444 3 652 10 652 6 0 30 -18 53 -41 196 -191 475 -286 764 -258 113 10 164 19 178 29 6 4 24 10 40 14 48 12 151 62 228 112 85 55 206 174 263 259 45 65 109 195 120 241 4 16 10 34 14 39 9 12 26 120 35 215 7 84 -10 245 -35 329 -75 247 -241 455 -461 580 -283 160 -621 166 -924 18 -56 -28 -197 -130 -234 -171 -42 -45 -48 -36 -52 82 -5 126 -17 153 -82 183 -53 24 -54 24 -107 -3z m1104 -278 c112 -31 208 -84 291 -162 85 -79 144 -165 187 -274 31 -77 32 -83 32 -239 1 -130 -2 -170 -17 -215 -64 -188 -190 -337 -357 -420 -36 -18 -72 -36 -81 -40 -65 -33 -293 -44 -404 -21 -74 16 -193 72 -261 122 -110 81 -198 204 -251 350 -24 66 -27 89 -27 214 -1 177 19 246 112 394 83 130 239 245 389 287 141 39 254 40 387 4z" style="fill: rgb(234, 80, 31);"/>
  </g>
</svg>