<?xml version="1.0" encoding="utf-8"?>
<svg version="1.0" width="2000.000000pt" height="2000.000000pt" viewBox="0 0 2000.000000 2000.000000" preserveAspectRatio="xMidYMid meet" xmlns="http://www.w3.org/2000/svg">
  <g transform="translate(0.000000,2000.000000) scale(0.100000,-0.100000)" fill="#000000" stroke="none">
    <path d="M9815 19064 c-217 -19 -465 -69 -655 -134 -167 -57 -382 -154 -504 -228 -37 -23 -70 -42 -72 -42 -11 0 -273 -184 -352 -248 -285 -229 -546 -512 -798 -864 -70 -99 -239 -366 -278 -438 -10 -19 -39 -73 -65 -120 -54 -97 -150 -293 -209 -425 -56 -127 -122 -285 -122 -291 0 -3 -6 -20 -14 -37 -49 -115 -139 -384 -211 -632 -38 -132 -42 -148 -74 -280 -49 -201 -70 -295 -91 -415 -12 -63 -25 -137 -31 -165 -5 -27 -16 -97 -24 -155 -8 -58 -21 -148 -29 -200 -8 -52 -17 -131 -21 -175 -3 -44 -9 -90 -12 -102 l-5 -23 -1953 0 c-1659 0 -1965 -2 -2029 -14 -271 -52 -493 -215 -600 -439 -45 -96 -80 -262 -66 -322 5 -24 16 -143 25 -265 8 -122 19 -272 25 -333 11 -121 34 -427 50 -652 6 -77 15 -196 20 -265 6 -69 15 -188 20 -265 6 -77 17 -219 25 -315 8 -96 19 -247 25 -335 6 -88 15 -203 20 -255 5 -52 12 -140 15 -195 3 -55 14 -208 25 -340 23 -287 45 -575 60 -780 6 -82 15 -195 20 -250 5 -55 12 -145 15 -200 3 -55 13 -176 21 -269 8 -93 21 -264 29 -380 8 -116 20 -265 25 -331 5 -66 14 -181 20 -255 13 -192 38 -513 50 -665 6 -71 17 -220 25 -330 7 -110 21 -285 29 -390 32 -381 36 -442 42 -560 3 -66 10 -144 15 -174 5 -30 9 -82 9 -115 0 -34 4 -88 9 -121 5 -33 13 -130 16 -215 4 -85 9 -166 11 -180 7 -58 26 -264 34 -390 18 -274 30 -438 40 -545 16 -185 21 -242 36 -460 20 -290 44 -517 64 -595 5 -19 14 -57 21 -85 80 -337 230 -635 446 -886 206 -239 453 -409 768 -529 142 -54 345 -104 538 -132 112 -16 11153 -24 11452 -8 273 14 467 51 694 132 576 206 994 644 1179 1238 67 213 103 423 122 710 6 91 15 201 20 245 5 44 12 136 15 205 3 69 10 168 15 220 13 139 38 461 70 915 6 77 15 183 20 235 5 52 12 145 15 205 5 102 19 283 30 400 3 28 12 149 20 270 8 121 17 243 19 270 3 28 10 113 16 190 6 77 15 187 20 245 6 58 15 182 21 275 6 94 15 215 19 270 5 55 15 199 24 320 18 257 25 353 32 415 2 25 9 104 14 177 5 72 13 187 19 255 5 68 15 195 21 283 6 88 15 201 21 250 5 50 14 169 20 265 6 96 15 222 19 280 5 58 13 170 19 250 6 80 15 197 20 260 6 63 15 185 21 270 6 85 15 198 20 250 6 52 15 174 21 270 6 96 15 220 19 275 5 55 13 170 19 255 10 147 24 328 36 470 11 119 23 283 40 510 9 124 20 277 25 340 50 624 56 752 36 838 -63 279 -312 499 -640 566 -67 14 -298 16 -2030 16 l-1955 0 -5 33 c-3 17 -8 57 -11 87 -20 177 -61 460 -85 585 -5 28 -16 88 -24 135 -9 47 -21 105 -26 130 -6 25 -15 65 -20 90 -20 96 -75 318 -99 400 -11 36 -27 92 -37 125 -9 33 -20 69 -24 80 -5 11 -16 47 -25 80 -9 33 -21 69 -25 80 -5 11 -18 47 -29 80 -11 33 -38 110 -61 170 -23 61 -48 128 -56 150 -8 22 -21 54 -28 70 -8 17 -35 80 -61 140 -184 429 -455 886 -724 1225 -267 336 -583 634 -890 839 -242 163 -558 309 -821 381 -63 17 -128 35 -145 40 -120 36 -574 69 -750 54z m405 -895 c114 -16 164 -28 293 -70 354 -116 706 -363 1009 -708 403 -458 718 -1033 957 -1746 78 -232 150 -497 196 -720 8 -38 19 -92 25 -120 17 -76 55 -303 79 -465 6 -41 14 -114 17 -162 l7 -88 -2801 0 c-1736 0 -2803 4 -2807 9 -3 6 2 61 10 123 9 62 20 147 26 188 9 75 21 142 39 235 6 28 20 100 31 160 12 61 25 126 30 145 4 19 14 64 22 100 52 238 244 858 278 895 5 5 9 15 9 23 0 7 9 32 19 55 10 23 31 71 46 107 164 394 396 790 654 1115 116 147 361 394 496 501 434 343 900 488 1365 423z m225 -6208 c77 -6 167 -15 200 -21 281 -46 426 -73 490 -90 22 -6 65 -17 95 -25 115 -27 216 -55 235 -64 11 -5 54 -19 95 -32 70 -20 320 -109 365 -129 11 -5 43 -18 70 -29 28 -10 77 -31 110 -46 284 -129 333 -164 387 -273 30 -60 33 -75 33 -157 0 -76 -4 -98 -26 -146 -66 -141 -220 -239 -376 -239 -42 0 -182 40 -208 60 -13 10 -238 108 -287 126 -21 7 -53 20 -71 28 -71 31 -376 132 -507 166 -131 35 -378 85 -470 95 -30 3 -86 10 -125 15 -201 26 -373 33 -517 20 -379 -34 -588 -84 -813 -196 -201 -99 -349 -230 -443 -391 -47 -80 -122 -225 -122 -235 0 -4 -11 -31 -24 -60 -78 -172 -117 -405 -97 -584 10 -98 16 -121 53 -220 105 -281 427 -560 903 -782 202 -94 597 -243 750 -283 27 -7 205 -57 280 -79 17 -5 55 -16 85 -24 391 -103 886 -305 1180 -481 352 -211 603 -420 814 -680 211 -260 353 -552 425 -875 60 -273 48 -619 -33 -914 -70 -257 -229 -575 -411 -821 -370 -500 -981 -836 -1670 -916 -296 -34 -656 -27 -975 21 -105 16 -229 39 -270 50 -19 5 -71 17 -115 26 -44 9 -111 25 -150 36 -38 11 -94 26 -124 34 -160 43 -604 205 -766 279 -16 7 -76 34 -133 59 -123 55 -358 173 -462 231 -41 24 -156 87 -255 142 -197 109 -362 214 -412 262 -63 61 -113 174 -113 256 0 89 61 220 129 277 84 71 171 102 281 101 98 -1 146 -20 317 -126 761 -470 1499 -772 2133 -872 206 -33 253 -37 465 -42 233 -6 295 0 512 43 561 112 977 464 1186 1004 46 120 56 158 82 304 37 208 2 459 -93 668 -133 293 -393 559 -767 785 -118 72 -351 186 -485 238 -52 20 -104 40 -115 45 -33 14 -256 86 -325 105 -36 9 -76 21 -90 26 -14 5 -43 13 -65 18 -318 74 -868 270 -1176 418 -378 182 -658 372 -889 603 -159 159 -271 310 -359 486 -83 166 -102 227 -150 472 -14 67 -14 364 -1 429 5 26 16 89 26 138 16 88 29 140 45 180 4 11 11 31 14 45 4 14 16 50 27 80 130 352 313 658 500 836 311 296 699 485 1198 582 142 28 174 32 310 42 80 6 147 14 150 17 8 7 388 -3 545 -16z" style="fill: rgb(234, 80, 31);"/>
  </g>
</svg>