<?xml version="1.0" encoding="UTF-8" standalone="no"?>
<svg
   height="1024"
   viewBox="0 0 188.457 188.482"
   width="1024"
   version="1.1"
   id="svg91"
   sodipodi:docname="icon2.svg"
   inkscape:version="1.1.2 (b8e25be8, 2022-02-05)"
   xmlns:inkscape="http://www.inkscape.org/namespaces/inkscape"
   xmlns:sodipodi="http://sodipodi.sourceforge.net/DTD/sodipodi-0.dtd"
   xmlns="http://www.w3.org/2000/svg"
   xmlns:svg="http://www.w3.org/2000/svg">
  <defs
     id="defs95" />
  <sodipodi:namedview
     id="namedview93"
     pagecolor="#505050"
     bordercolor="#ffffff"
     borderopacity="1"
     inkscape:pageshadow="0"
     inkscape:pageopacity="0"
     inkscape:pagecheckerboard="1"
     showgrid="false"
     inkscape:zoom="0.82324219"
     inkscape:cx="349.22894"
     inkscape:cy="512"
     inkscape:window-width="2560"
     inkscape:window-height="1387"
     inkscape:window-x="1920"
     inkscape:window-y="25"
     inkscape:window-maximized="1"
     inkscape:current-layer="svg91" />
  <rect
     style="fill:#ffffff;fill-rule:evenodd;stroke-width:0.183446"
     id="rect223"
     width="165.68462"
     height="182.91954"
     x="21.666964"
     y="1.0907544"
     ry="25.0415" />
  <path
     d="m 27.033,0.42 h 134.392 c 14.705,0 26.624,12.565 26.624,28.065 v 130.822 c 0,15.5 -11.92,28.064 -26.624,28.064 H 27.033 c -14.705,0 -26.625,-12.564 -26.625,-28.064 V 28.485 c 0,-15.5 11.92,-28.065 26.625,-28.065 z"
     fill="none"
     stroke="#0180c7"
     stroke-miterlimit="10"
     stroke-width="0.841"
     id="path89"
     style="display:inline" />
  <g
     stroke-width="0.421"
     id="g87">
    <path
       d="m 33.832,164.445 c -0.737,-0.346 -1.27,-0.734 -0.41,-1.512 0.533,-0.431 1.107,-0.82 1.68,-1.208 5.366,-3.67 10.404,-7.686 13.722,-13.6 2.785,-4.923 2.335,-7.816 -1.147,-11.442 C 28.262,116.217 19.742,91.737 24.002,62.809 26.418,46.489 33.505,32.371 43.827,20.109 50.053,12.682 57.467,6.681 65.577,1.673 66.068,1.37 66.765,1.284 66.847,0.507 66.683,0.075 66.396,0.205 66.15,0.205 52.346,0.205 38.543,-0.098 24.78,0.291 11.59,0.723 0.204,11.474 0.245,26.887 c 0.081,45.032 0,90.064 0,135.14 0,13.989 10.117,25.69 23.347,26.207 11.182,0.475 22.365,0.087 33.588,0.043 0.82,0.044 1.638,0.087 2.457,0.087 h 59.148 c 14.745,0 29.491,0.086 44.237,0 13.681,0 24.781,-11.658 24.781,-26.035 v -25.517 c 0,-0.604 0.205,-1.252 -0.163,-1.9 -0.738,0.044 -1.024,0.691 -1.434,1.123 -7.946,8.42 -17.326,15.198 -27.608,19.99 -25.19,11.7 -50.832,12.521 -76.842,3.109 -2.253,-0.864 -4.71,-0.95 -7.045,-0.345 -3.44,0.906 -6.84,1.986 -10.24,3.065 -9.995,3.281 -20.194,4.75 -30.639,2.59 z M 63.53,91.694 c 0.696,-0.95 1.065,-1.511 1.474,-2.073 A 9329.218,9329.218 0 0 0 81.102,68.077 c 1.556,-2.073 3.113,-4.188 4.096,-6.692 1.147,-2.85 -0.082,-5.527 -2.867,-6.563 a 10.512,10.512 0 0 0 -3.85,-0.475 c -7.292,-0.043 -14.624,-0.043 -21.915,0 -1.024,0 -2.048,0.13 -3.03,0.388 -2.294,0.605 -3.687,3.066 -3.114,5.527 0.41,1.64 1.639,2.936 3.195,3.324 0.983,0.26 2.007,0.389 3.031,0.346 4.424,0.043 8.889,0 13.313,0.043 0.491,0 1.106,-0.345 1.474,0.432 a 45.83,45.83 0 0 1 -1.106,1.51 c -6.349,8.463 -12.658,16.97 -19.007,25.432 -1.556,2.116 -2.375,4.447 -1.228,7.038 1.147,2.59 3.481,3.065 5.857,3.238 1.884,0.13 3.81,0.043 5.735,0.043 6.635,0 13.23,0.043 19.865,-0.043 3.523,-0.043 5.407,-2.288 5.039,-5.742 -0.287,-2.72 -2.048,-4.145 -5.325,-4.188 -5.776,-0.043 -11.551,0 -17.736,0 z m 47.514,-22.71 c -5.12,-4.707 -10.773,-5.009 -16.302,-1.555 -6.718,4.145 -9.175,10.924 -8.356,18.781 0.778,7.34 3.81,13.342 11.1,15.803 4.547,1.554 8.766,0.993 12.493,-2.202 0.983,-0.82 1.27,-0.648 1.966,0.259 1.352,1.813 3.687,2.504 5.735,1.684 2.048,-0.648 3.4,-2.634 3.4,-4.88 0.04,-8.634 0.081,-17.27 0,-25.905 -0.042,-3.454 -3.114,-5.656 -6.308,-4.965 -1.762,0.389 -2.745,1.641 -3.728,2.98 z m 28.386,16.018 c -0.164,10.793 8.315,18.954 18.965,17.831 9.79,-1.036 16.138,-8.765 15.81,-19.688 -0.327,-10.794 -7.946,-18.177 -18.39,-17.832 -9.79,0.303 -16.713,8.592 -16.385,19.689 z m -3.605,-8.592 c 0,-6.779 0.041,-13.514 0,-20.293 0,-3.454 -2.089,-5.613 -5.202,-5.57 -3.03,0.044 -5.038,2.202 -5.079,5.527 -0.04,2.03 0,4.015 0,6.044 v 34.325 c 0,2.677 1.557,5.008 3.605,5.57 2.826,0.82 5.734,-0.95 6.472,-3.93 0.122,-0.517 0.204,-1.035 0.163,-1.597 0.082,-6.692 0.041,-13.384 0.041,-20.076 z"
       fill="none"
       id="path77" />
    <path
       d="m 57.139,188.32 c -11.182,0 -22.406,0.39 -33.588,-0.042 -13.23,-0.562 -23.347,-12.262 -23.347,-26.208 0,-45.032 0.082,-90.064 0,-135.14 C 0.204,11.517 11.632,0.766 24.78,0.377 38.543,-0.01 52.346,0.291 66.15,0.291 c 0.246,0 0.574,-0.13 0.697,0.302 -0.082,0.777 -0.82,0.864 -1.27,1.166 -8.11,5.008 -15.524,11.01 -21.75,18.436 -10.281,12.262 -17.409,26.337 -19.825,42.7 -4.26,28.885 4.3,53.409 23.675,73.874 3.44,3.67 3.891,6.52 1.147,11.442 -3.318,5.915 -8.356,9.93 -13.722,13.6 -0.573,0.345 -1.147,0.777 -1.72,1.166 -0.86,0.777 -0.328,1.165 0.41,1.51 0.163,0.39 0.368,0.735 0.614,1.08 4.71,4.404 9.175,9.11 13.803,13.6 a 235.013,235.013 0 0 1 6.431,6.52 c 0.86,0.82 2.294,1.08 2.499,2.634 z"
       fill="#0180c7"
       id="path79" />
    <path
       d="m 57.139,188.32 c -0.205,-1.51 -1.639,-1.77 -2.499,-2.676 -2.089,-2.245 -4.26,-4.404 -6.43,-6.52 -4.63,-4.49 -9.094,-9.196 -13.804,-13.6 a 5.572,5.572 0 0 1 -0.615,-1.08 c 10.445,2.16 20.644,0.691 30.68,-2.547 3.4,-1.08 6.8,-2.159 10.24,-3.065 a 11.243,11.243 0 0 1 7.045,0.345 c 25.97,9.412 51.61,8.549 76.842,-3.108 a 90.585,90.585 0 0 0 27.608,-19.948 c 0.41,-0.431 0.696,-1.079 1.434,-1.122 0.368,0.604 0.163,1.252 0.163,1.9 v 25.257 c 0.082,14.42 -10.895,26.165 -24.576,26.294 h -0.205 c -14.746,0.087 -29.492,0 -44.237,0 H 59.597 c -0.82,-0.086 -1.639,-0.13 -2.458,-0.13 z"
       fill="#0172b1"
       id="path81"
       style="display:inline" />
    <path
       d="m 63.529,91.694 c 6.185,0 12.001,-0.043 17.777,0 3.236,0.043 4.997,1.468 5.325,4.188 0.368,3.41 -1.516,5.699 -5.039,5.742 -6.635,0.087 -13.23,0.043 -19.866,0.043 -1.925,0 -3.809,0.087 -5.734,-0.043 -2.376,-0.13 -4.71,-0.647 -5.857,-3.238 -1.147,-2.59 -0.328,-4.922 1.228,-7.038 6.308,-8.462 12.657,-16.968 19.006,-25.43 0.369,-0.518 0.737,-1.036 1.106,-1.511 -0.41,-0.734 -0.983,-0.389 -1.474,-0.432 -4.424,-0.043 -8.889,0 -13.313,-0.043 -1.024,0 -2.048,-0.13 -3.03,-0.346 -2.336,-0.56 -3.77,-3.022 -3.237,-5.44 0.369,-1.64 1.598,-2.979 3.154,-3.367 0.983,-0.26 2.007,-0.389 3.031,-0.389 7.291,-0.043 14.623,-0.043 21.914,0 1.311,-0.043 2.58,0.13 3.85,0.475 2.786,0.993 3.974,3.713 2.868,6.563 -0.983,2.46 -2.54,4.576 -4.096,6.692 a 4647.55,4647.55 0 0 1 -16.098,21.5 c -0.45,0.562 -0.86,1.123 -1.515,2.073 z"
       fill="#0180c7"
       id="path83" />
    <path
       d="m 111.043,68.983 c 0.983,-1.338 2.007,-2.59 3.687,-2.936 3.235,-0.69 6.267,1.512 6.307,4.966 0.123,8.635 0.082,17.27 0,25.905 0,2.245 -1.392,4.231 -3.4,4.879 -2.047,0.82 -4.382,0.173 -5.734,-1.684 -0.696,-0.907 -0.983,-1.08 -1.966,-0.26 -3.727,3.196 -7.946,3.757 -12.493,2.203 -7.29,-2.504 -10.281,-8.506 -11.1,-15.802 -0.86,-7.901 1.638,-14.637 8.356,-18.782 5.57,-3.497 11.223,-3.195 16.343,1.511 z m -14.5,15.76 c 0.082,1.9 0.655,3.713 1.72,5.224 2.212,3.108 6.431,3.756 9.421,1.425 a 7.24,7.24 0 0 0 1.352,-1.425 c 2.294,-3.282 2.294,-8.679 0,-11.96 -1.147,-1.684 -2.95,-2.677 -4.874,-2.72 -4.506,-0.302 -7.66,3.368 -7.619,9.455 z m 42.886,0.259 c -0.328,-11.097 6.595,-19.386 16.425,-19.689 10.445,-0.345 18.064,7.038 18.391,17.832 0.328,10.923 -6.02,18.652 -15.81,19.688 -10.691,1.123 -19.17,-7.038 -19.006,-17.831 z m 10.281,-1.037 a 9.92,9.92 0 0 0 1.761,6.045 c 2.253,3.109 6.472,3.713 9.421,1.295 0.45,-0.345 0.82,-0.777 1.188,-1.209 2.376,-3.281 2.376,-8.808 0.041,-12.089 -1.147,-1.64 -2.95,-2.677 -4.874,-2.72 -4.424,-0.259 -7.537,3.281 -7.537,8.678 z M 135.824,76.41 c 0,6.692 0.041,13.384 0,20.076 0.041,3.066 -2.253,5.613 -5.16,5.7 a 6.046,6.046 0 0 1 -1.516,-0.173 c -2.048,-0.562 -3.605,-2.85 -3.605,-5.57 V 62.118 c 0,-2.029 -0.04,-4.015 0,-6.044 0.041,-3.325 2.048,-5.483 5.08,-5.483 3.112,-0.044 5.201,2.115 5.201,5.57 0.041,6.735 0,13.513 0,20.249 z"
       fill="#0180c7"
       id="path85" />
  </g>
</svg>
