<?xml version="1.0" encoding="utf-8"?>
<svg viewBox="0 0 500 500" xmlns="http://www.w3.org/2000/svg">
  <path fill="#26AAE1" d="M 200.268 388.193 C 190.343 388.193 182.295 380.147 182.295 370.223 L 182.295 230.421 C 182.295 220.496 190.341 212.448 200.268 212.448 C 210.192 212.448 218.239 220.494 218.239 230.421 L 218.239 370.223 C 218.239 380.147 210.192 388.193 200.268 388.193" style=""/>
  <path fill="#26AAE1" d="M 406.693 388.193 C 396.766 388.193 388.721 380.147 388.721 370.223 L 388.721 230.421 C 388.721 220.496 396.766 212.448 406.693 212.448 C 416.617 212.448 424.664 220.494 424.664 230.421 L 424.664 370.223 C 424.665 380.147 416.617 388.193 406.693 388.193" style=""/>
  <path fill="#26AAE1" d="M 156.943 213.849 L 67.726 213.849 C 58.328 213.849 50.709 221.468 50.709 230.866 C 50.709 240.265 58.328 247.883 67.726 247.883 L 94.767 247.883 L 94.767 370.62 C 94.767 380.018 102.385 387.637 111.784 387.637 L 113.419 387.637 C 122.818 387.637 130.436 380.018 130.436 370.62 L 130.436 247.883 L 156.943 247.883 C 166.341 247.883 173.96 240.265 173.96 230.866 C 173.96 221.468 166.341 213.849 156.943 213.849" style=""/>
  <path fill="#26AAE1" d="M 276.688 310.504 C 276.688 329.995 276.718 349.039 276.676 368.083 C 276.649 380.741 270.011 387.714 258.192 387.637 C 246.606 387.561 240.28 380.954 240.26 368.382 C 240.186 323.199 240.193 278.016 240.255 232.835 C 240.272 220.195 247.138 212.681 258.338 212.616 C 270.341 212.544 276.658 219.541 276.682 233.015 C 276.707 248.861 276.688 264.706 276.688 282.707 C 282.948 276.125 288.033 270.823 293.072 265.476 C 307.809 249.831 322.486 234.13 337.279 218.534 C 342.858 212.65 349.618 210.948 357.307 213.916 C 364.135 216.551 367.848 221.655 368.332 228.889 C 368.818 236.166 364.46 241.297 359.776 245.983 C 347.343 258.422 334.793 270.748 322.175 283.001 C 310.549 294.294 310.482 294.229 321.918 306.163 C 337.634 322.563 353.352 338.963 369.071 355.364 C 372.652 359.102 375.925 363.055 376.521 368.452 C 377.301 375.499 375.755 381.59 369.018 385.333 C 362.308 389.061 352.603 388.752 347.038 383.516 C 339.046 375.997 331.593 367.89 324.101 359.859 C 309.774 344.502 295.597 329.003 281.303 313.615 C 280.215 312.447 279.459 310.701 276.688 310.504" style=""/>
  <path fill="#26AAE1" d="M 199.353 189.531 C 181.236 189.531 166.549 174.846 166.549 156.727 C 166.549 153.744 166.954 150.858 167.7 148.112 L 231.006 148.112 C 231.751 150.858 232.157 153.744 232.157 156.727 C 232.158 174.846 217.471 189.531 199.353 189.531 M 199.353 111.808 C 175.981 111.808 157.035 130.754 157.035 154.125 C 157.035 177.498 175.981 196.444 199.353 196.444 C 222.726 196.444 241.674 177.498 241.674 154.125 C 241.674 130.754 222.726 111.808 199.353 111.808 Z" style=""/>
  <path fill="#26AAE1" d="M 406.973 189.531 C 388.855 189.531 374.169 174.846 374.169 156.727 C 374.169 153.744 374.575 150.858 375.32 148.112 L 438.625 148.112 C 439.372 150.858 439.777 153.744 439.777 156.727 C 439.777 174.846 425.091 189.531 406.973 189.531 M 406.973 111.808 C 383.602 111.808 364.654 130.754 364.654 154.125 C 364.654 177.498 383.602 196.444 406.973 196.444 C 430.345 196.444 449.291 177.498 449.291 154.125 C 449.292 130.754 430.345 111.808 406.973 111.808 Z" style=""/>
</svg>