<?xml version="1.0" encoding="utf-8"?>
<svg width="1024px" height="1024px" viewBox="0 0 250 250" xmlns="http://www.w3.org/2000/svg">
  <g clip-rule="evenodd" fill-rule="evenodd">
    <path d="M25 0h200c13.808 0 25 11.192 25 25v200c0 13.808-11.192 25-25 25H25c-13.808 0-25-11.192-25-25V25C0 11.192 11.192 0 25 0z" fill="#010101"/>
    <ellipse cx="154.811" cy="216.338" fill="#010101" rx="6.699" ry="6.643"/>
    <path d="M 163.883 95.944 C 176.026 104.62 190.903 109.725 206.97 109.725 L 206.97 78.822 C 203.929 78.823 200.896 78.506 197.921 77.876 L 197.921 102.201 C 181.856 102.201 166.981 97.096 154.834 88.42 L 154.834 151.482 C 154.834 183.029 129.248 208.601 97.686 208.601 C 85.911 208.601 74.965 205.043 65.872 198.94 C 76.25 209.545 90.722 216.125 106.733 216.125 C 138.296 216.125 163.884 190.553 163.884 159.005 L 163.884 95.944 L 163.883 95.944 Z M 175.045 64.767 C 168.839 57.991 164.765 49.233 163.883 39.551 L 163.883 35.577 L 155.308 35.577 C 157.466 47.882 164.828 58.395 175.045 64.767 Z M 85.834 174.733 C 82.367 170.189 80.493 164.63 80.501 158.915 C 80.501 144.486 92.205 132.788 106.644 132.788 C 109.334 132.786 112.009 133.199 114.574 134.012 L 114.574 102.419 C 111.577 102.009 108.553 101.835 105.529 101.899 L 105.529 126.489 C 102.963 125.676 100.287 125.263 97.595 125.265 C 83.157 125.265 71.454 136.963 71.454 151.393 C 71.454 161.596 77.304 170.43 85.834 174.733 Z" fill="#ee1d52" style=""/>
    <path d="M 154.834 88.42 C 166.981 97.096 181.856 102.201 197.921 102.201 L 197.921 77.876 C 188.954 75.967 181.015 71.283 175.045 64.767 C 164.828 58.395 157.466 47.882 155.308 35.577 L 132.785 35.577 L 132.785 159.004 C 132.734 173.393 121.05 185.043 106.643 185.043 C 98.152 185.043 90.61 180.999 85.833 174.733 C 77.303 170.43 71.453 161.596 71.453 151.393 C 71.453 136.963 83.155 125.265 97.594 125.265 C 100.36 125.265 103.027 125.696 105.528 126.489 L 105.528 101.899 C 74.521 102.539 49.583 127.862 49.583 159.005 C 49.583 174.551 55.794 188.645 65.872 198.941 C 74.965 205.044 85.911 208.602 97.686 208.602 C 129.248 208.602 154.834 183.029 154.834 151.483 L 154.834 88.42 Z" fill="#fff" style=""/>
    <path d="M 197.921 77.876 L 197.921 71.298 C 189.834 71.31 181.907 69.047 175.045 64.766 C 181.119 71.412 189.116 75.995 197.921 77.876 Z M 155.308 35.577 C 155.102 34.401 154.944 33.217 154.834 32.028 L 154.834 28.054 L 123.736 28.054 L 123.736 151.482 C 123.686 165.87 112.003 177.52 97.594 177.52 C 93.363 177.52 89.37 176.517 85.833 174.733 C 90.61 180.999 98.152 185.043 106.643 185.043 C 121.049 185.043 132.734 173.393 132.785 159.004 L 132.785 35.577 L 155.308 35.577 Z M 105.529 101.899 L 105.529 94.896 C 102.93 94.541 100.31 94.364 97.687 94.365 C 66.123 94.365 40.536 119.938 40.536 151.482 C 40.536 171.259 50.592 188.688 65.873 198.94 C 55.795 188.644 49.584 174.55 49.584 159.004 C 49.584 127.862 74.521 102.539 105.529 101.899 Z" fill="#69c9d0" style=""/>
  </g>
</svg>
