<?xml version="1.0" encoding="utf-8"?>
<svg version="1.0" width="256.000000pt" height="256.000000pt" viewBox="0 0 256.000000 256.000000" preserveAspectRatio="xMidYMid meet" xmlns="http://www.w3.org/2000/svg" xmlns:bx="https://boxy-svg.com">
  <rect x="20.98" y="77.618" width="206.469" height="91.062" style="stroke: rgb(0, 0, 0); fill: rgb(255, 255, 255);"/>
  <g transform="matrix(0.1, 0, 0, -0.1, 0.472769, 257.486298)" fill="#000000" stroke="none">
    <path d="M1190 2555 c-8 -2 -55 -9 -105 -15 -170 -23 -361 -97 -520 -201 -103 -68 -276 -241 -344 -344 -146 -223 -215 -451 -215 -715 0 -352 125 -652 373 -901 191 -190 412 -307 675 -356 120 -22 332 -22 452 0 526 98 933 505 1031 1031 22 120 22 332 0 452 -97 524 -508 936 -1027 1029 -82 15 -289 28 -320 20z m142 -931 c64 -21 122 -75 155 -142 25 -51 28 -69 32 -178 5 -190 -36 -286 -150 -349 -47 -26 -64 -30 -134 -30 -70 0 -87 4 -134 30 -95 52 -143 136 -156 271 -14 138 24 272 97 342 69 65 193 90 290 56z m-462 -31 c0 -33 -25 -75 -179 -298 l-179 -260 184 -3 184 -2 0 -50 0 -50 -260 0 -260 0 0 43 c0 40 14 64 176 298 l175 254 -175 3 -176 2 0 50 0 50 255 0 255 0 0 -37z m1197 -293 c68 -179 126 -335 129 -347 6 -22 4 -23 -58 -23 l-65 0 -27 80 -28 80 -133 0 -133 0 -28 -80 -27 -80 -64 0 c-35 0 -63 4 -63 8 0 9 248 671 257 685 2 4 30 7 61 5 l56 -3 123 -325z" style="fill: rgb(0, 92, 225);"/>
    <ellipse style="stroke: rgb(0, 0, 0); fill: rgb(0, 92, 225);" transform="matrix(1, 0, 0, -1, 0, 0)" cx="1236.407" cy="-1283.941" rx="160.077" ry="259.233"/>
    <path d="M 1886.262 -1464.045 L 1978.864 -1202.236 L 1793.66 -1202.236 L 1886.262 -1464.045 Z" style="stroke: rgb(0, 0, 0); fill: rgb(0, 92, 225);" transform="matrix(1, 0, 0, -1, 0, 0)" bx:shape="triangle 1793.66 -1464.045 185.204 261.809 0.5 0 1@9f0f688d"/>
  </g>
</svg>